# xmcd
#
# Track frame offsets:
# 151
# 13352
# 27810
# 40121
# 51004
# 62966
# 78514
# 86774
# 100599
# 116567
# 133359
# 145364
#
# Disc length: 2108 seconds
#
#
# Revision: 2
# Processed by: cddbd v1.5.2PL0 Copyright (c) Steve Scherf et al.
# Submitted via: FreeRIP 2.943 
#
DISCID=a6083a0c
DTITLE=LEO DAN  - LEO DAN
DYEAR=1999
DGENRE=Ballad
TTITLE0=Cómo te extraño mi amor
TTITLE1=Mary es mi amor
TTITLE2=Te he prometido
TTITLE3=Quien no tiene una ilusión
TTITLE4=Fanny
TTITLE5=Yo sé que no es feliz
TTITLE6=Celia
TTITLE7=Esa pared
TTITLE8=Tu me pides que te olvide
TTITLE9=Siempre estoy pensando en ella
TTITLE10=Que tiene la niña
TTITLE11=Una calle nos separa
EXTD=
EXTT0=
EXTT1=
EXTT2=
EXTT3=
EXTT4=
EXTT5=
EXTT6=
EXTT7=
EXTT8=
EXTT9=
EXTT10=
EXTT11=
PLAYORDER=
